<svg width="16" height="16" viewBox="0 0 16 16" fill="none" xmlns="http://www.w3.org/2000/svg">
<g clip-path="url(#clip0_21342_1457)">
<path d="M1.13672 7.92187L5.07422 3.98437C5.23828 3.82031 5.53906 3.82031 5.70313 3.98437C5.86719 4.14844 5.86719 4.44922 5.70313 4.61328L2.50391 7.8125L14.5625 7.8125C14.8086 7.8125 15 8.00391 15 8.25C15 8.46875 14.8086 8.6875 14.5625 8.6875L2.50391 8.6875L5.70313 11.8594C5.86719 12.0234 5.86719 12.3242 5.70313 12.4883C5.53906 12.6523 5.23828 12.6523 5.07422 12.4883L1.13672 8.55078C0.972657 8.38672 0.972657 8.08594 1.13672 7.92187Z" fill="#262626"/>
</g>
<defs>
<clipPath id="clip0_21342_1457">
<rect width="16" height="16" fill="white" transform="translate(16 16) rotate(-180)"/>
</clipPath>
</defs>
</svg>
